<svg width="312" height="174" viewBox="0 0 312 174" fill="none" xmlns="http://www.w3.org/2000/svg">
<rect width="312" height="174" fill="#EEEEEE"/>
<path d="M245 104.034H67V142.067H245V104.034Z" fill="black"/>
<path d="M245 92.1362V122.104L239.655 130.567C237.806 133.455 234.609 135.247 231.212 135.247H80.8383C77.3912 135.247 74.1939 133.504 72.3955 130.567L67 122.104V92.0864C67 87.3572 68.2989 82.7276 70.7968 78.7451L98.2237 34.5394C101.921 28.6155 108.365 25.0312 115.359 25.0312H196.641C203.635 25.0312 210.079 28.6155 213.776 34.5394L241.203 78.7451C243.651 82.7774 245 87.407 245 92.1362Z" fill="#C8D9F0"/>
<path d="M95.9756 152.969H70.9966C68.7985 152.969 67 151.177 67 148.986V137.039H99.9722V148.986C99.9722 151.177 98.1737 152.969 95.9756 152.969Z" fill="black"/>
<path d="M241.003 152.969H216.024C213.826 152.969 212.028 151.177 212.028 148.986V137.039H245V148.986C245 151.177 243.201 152.969 241.003 152.969Z" fill="black"/>
<path d="M82.986 50.1706H69.7471C67.9486 50.1706 66.6497 51.8632 67.0994 53.6055C68.3483 58.3347 72.5947 61.6203 77.4906 61.6203H86.2832L87.5821 55.995C88.3315 53.0081 86.0334 50.1706 82.986 50.1706Z" fill="#C8D9F0"/>
<path d="M229.013 50.1706H242.252C244.05 50.1706 245.349 51.8632 244.899 53.6055C243.651 58.3347 239.404 61.6203 234.508 61.6203H225.716L224.417 55.995C223.667 53.0081 225.915 50.1706 229.013 50.1706Z" fill="#C8D9F0"/>
<path d="M106.517 115.882H205.484C208.381 115.882 210.23 119.018 208.781 121.557L196.841 142.017H115.16L103.27 121.507C101.771 119.018 103.62 115.882 106.517 115.882Z" fill="black"/>
<path d="M245 135.247H67V142.017H245V135.247Z" fill="black"/>
<path d="M174.06 134.55H137.94C136.541 134.55 135.442 133.455 135.442 132.061V125.788C135.442 124.394 136.541 123.299 137.94 123.299H174.11C175.509 123.299 176.608 124.394 176.608 125.788V132.061C176.558 133.455 175.459 134.55 174.06 134.55Z" fill="#C8D9F0"/>
<path d="M210.328 36.6303C207.381 31.8513 202.285 29.0138 196.64 29.0138H115.358C109.713 29.0138 104.618 31.8513 101.62 36.6303L89.0806 56.8414C87.7817 58.9322 89.2804 61.6204 91.7783 61.6204H220.22C222.668 61.6204 224.167 58.9322 222.918 56.8414L210.328 36.6303Z" fill="white"/>
<path d="M212.075 56.1081H199.858C199.557 56.1108 199.261 56.0335 199 55.8842C198.739 55.7349 198.522 55.5189 198.371 55.2582L193.272 46.0164C193.169 45.8221 193.107 45.609 193.089 45.3899C193.071 45.1709 193.097 44.9504 193.167 44.7419C193.236 44.5333 193.347 44.3411 193.493 44.1767C193.639 44.0123 193.817 43.8793 194.016 43.7856C194.247 43.6662 194.5 43.594 194.759 43.5731H206.869C207.185 43.5687 207.497 43.6443 207.776 43.7929C208.054 43.9415 208.291 44.1583 208.463 44.4229L213.562 53.6648C213.659 53.8802 213.711 54.1131 213.715 54.3492C213.719 54.5854 213.675 54.8198 213.585 55.0384C213.496 55.257 213.363 55.4551 213.194 55.6207C213.026 55.7864 212.826 55.916 212.606 56.0018C212.447 56.0982 212.259 56.1358 212.075 56.1081Z" fill="#276EF1"/>
<path d="M80.9882 90.9415V88.0542H122.953L131.346 102.541L85.2846 95.8698C82.8367 95.5214 80.9882 93.4306 80.9882 90.9415Z" fill="white"/>
<path d="M231.012 90.9415V88.0542H189.047L180.654 102.541L226.715 95.8698C229.163 95.5214 231.012 93.4306 231.012 90.9415Z" fill="white"/>
<path d="M122.953 88.1041L131.346 102.59L155.975 106.125L180.654 102.59L189.047 88.1041H122.953Z" fill="black"/>
<path d="M155.975 99.0059C159.231 99.0059 161.87 97.7355 161.87 96.1684C161.87 94.6013 159.231 93.3309 155.975 93.3309C152.719 93.3309 150.08 94.6013 150.08 96.1684C150.08 97.7355 152.719 99.0059 155.975 99.0059Z" fill="white"/>
</svg>
